<?xml version="1.0" ?><svg viewBox="0 0 520 520" xmlns="http://www.w3.org/2000/svg"><defs><style>.cls-1{fill:#4fc0e8;}.cls-2{fill:#3daed9;}.cls-3{fill:#f4f6f9;}</style></defs><title/><g id="Geological-Map"><path class="cls-1" d="M500,260c0,132.56-107.45,240-240,240S20,392.56,20,260,127.44,20,260,20,500,127.45,500,260Z"/><path class="cls-2" d="M487.86,188.12a6.13,6.13,0,0,0-5-5,6.13,6.13,0,0,0-5-5,6.13,6.13,0,0,0-5-5,6.13,6.13,0,0,0-5-5,6.13,6.13,0,0,0-5-5,6.13,6.13,0,0,0-5-5,6.13,6.13,0,0,0-5-5,6.13,6.13,0,0,0-5-5,6.13,6.13,0,0,0-5-5,6.13,6.13,0,0,0-5-5,6.13,6.13,0,0,0-5-5,6.13,6.13,0,0,0-5-5,6.13,6.13,0,0,0-5-5,6.13,6.13,0,0,0-5-5,6.13,6.13,0,0,0-5-5,6.2,6.2,0,0,0-8.09-4.79l-93.86,31.29-93.86-31.29a6.22,6.22,0,0,0-3.12-.13A5.77,5.77,0,0,0,213,108a6.23,6.23,0,0,0-4.42,1.83l-91.31,30.44A6.24,6.24,0,0,0,113,146.2V401.75a6.26,6.26,0,0,0,2.6,5.07,6.19,6.19,0,0,0,2.53,1,5.92,5.92,0,0,0,5,5,5.92,5.92,0,0,0,5,5,5.92,5.92,0,0,0,5,5,5.92,5.92,0,0,0,5,5,5.92,5.92,0,0,0,5,5,5.92,5.92,0,0,0,5,5,5.92,5.92,0,0,0,5,5,5.92,5.92,0,0,0,5,5,5.92,5.92,0,0,0,5,5,5.92,5.92,0,0,0,5,5,5.92,5.92,0,0,0,5,5,5.92,5.92,0,0,0,5,5,5.92,5.92,0,0,0,5,5,5.92,5.92,0,0,0,5,5,5.92,5.92,0,0,0,5,5,5.92,5.92,0,0,0,5,5,5.92,5.92,0,0,0,5,5q0,.21.09.42A240.65,240.65,0,0,0,260,500c132.55,0,240-107.44,240-240a240,240,0,0,0-10.83-71.51h0A6.56,6.56,0,0,0,487.86,188.12Z"/><path class="cls-3" d="M410.4,106.18a6.2,6.2,0,0,0-5.63-.85l-93.86,31.29-93.86-31.29a6.22,6.22,0,0,0-3.12-.13A5.74,5.74,0,0,0,213,105a6.23,6.23,0,0,0-4.42,1.83l-91.31,30.44A6.24,6.24,0,0,0,113,143.2V398.75a6.25,6.25,0,0,0,6.25,6.25,6.13,6.13,0,0,0,2-.32l93.85-31.29,93.86,31.29a6.22,6.22,0,0,0,3.13.13,5.75,5.75,0,0,0,.94.19,6.23,6.23,0,0,0,4.42-1.83l91.31-30.44A6.24,6.24,0,0,0,413,366.8V111.25A6.25,6.25,0,0,0,410.4,106.18ZM206.75,363,125.5,390.08V275.48l81.25-27.08Zm0-127.77L125.5,262.31V147.7l81.25-27.08Zm100,155.55-87.5-29.17V247l87.5,29.17Zm0-127.77-87.5-29.17V119.23l87.5,29.17Zm93.75,99.3-81.25,27.09V274.78L400.5,247.7Zm0-127.77-81.25,27.08V147l81.25-27.08Z"/></g></svg>